<?xml version="1.0" encoding="UTF-8" standalone="no"?>
<!-- Creator: CorelDRAW X6 -->

<svg
   xmlns:dc="http://purl.org/dc/elements/1.1/"
   xmlns:cc="http://creativecommons.org/ns#"
   xmlns:rdf="http://www.w3.org/1999/02/22-rdf-syntax-ns#"
   xmlns:svg="http://www.w3.org/2000/svg"
   xmlns="http://www.w3.org/2000/svg"
   xmlns:sodipodi="http://sodipodi.sourceforge.net/DTD/sodipodi-0.dtd"
   xmlns:inkscape="http://www.inkscape.org/namespaces/inkscape"
   xml:space="preserve"
   width="148.911mm"
   height="148.911mm"
   version="1.1"
   style="shape-rendering:geometricPrecision; text-rendering:geometricPrecision; image-rendering:optimizeQuality; fill-rule:evenodd; clip-rule:evenodd"
   viewBox="0 0 1688 1688"
   id="svg34"
   sodipodi:docname="flamingo agency svg.svg"
   inkscape:version="0.92.4 (5da689c313, 2019-01-14)"><metadata
   id="metadata38"><rdf:RDF><cc:Work
       rdf:about=""><dc:format>image/svg+xml</dc:format><dc:type
         rdf:resource="http://purl.org/dc/dcmitype/StillImage" /><dc:title></dc:title></cc:Work></rdf:RDF></metadata><sodipodi:namedview
   pagecolor="#ffffff"
   bordercolor="#666666"
   borderopacity="1"
   objecttolerance="10"
   gridtolerance="10"
   guidetolerance="10"
   inkscape:pageopacity="0"
   inkscape:pageshadow="2"
   inkscape:window-width="1920"
   inkscape:window-height="1001"
   id="namedview36"
   showgrid="false"
   inkscape:zoom="1.1860219"
   inkscape:cx="439.29648"
   inkscape:cy="344.18398"
   inkscape:window-x="-9"
   inkscape:window-y="41"
   inkscape:window-maximized="1"
   inkscape:current-layer="Слой_x0020_1" />
 <defs
   id="defs4">
  <style
   type="text/css"
   id="style2">
   <![CDATA[
    .fil5 {fill:#DD5582}
    .fil4 {fill:#1F1B20}
    .fil3 {fill:#D7A0B1}
    .fil2 {fill:#E4C0C4}
    .fil0 {fill:#F2D9DC}
    .fil1 {fill:#DD5582;fill-rule:nonzero}
   ]]>
  </style>
 </defs>
 <g
   id="Слой_x0020_1">
  <metadata
   id="CorelCorpID_0Corel-Layer" />
  <path
   class="fil0"
   d="M1401 287c-143,-143 -339,-231 -557,-231 -217,0 -414,88 -557,231 -143,143 -231,339 -231,557 0,217 88,414 231,557 143,143 339,231 557,231 217,0 414,-88 557,-231 143,-143 231,-339 231,-557 0,-217 -88,-414 -231,-557z"
   id="path7"
   style="stroke:#ba0909;stroke-opacity:1;stroke-width:0.99873984;stroke-miterlimit:4;stroke-dasharray:none;fill:#ff0000;fill-opacity:0.06698564;opacity:0" />
  <path
   class="fil1"
   d="M844 0c233,0 444,94 597,247 153,153 247,364 247,597 0,233 -94,444 -247,597 -153,153 -364,247 -597,247 -233,0 -444,-94 -597,-247 -153,-153 -247,-364 -247,-597 0,-233 94,-444 247,-597 153,-153 364,-247 597,-247zm557 287c-143,-143 -339,-231 -557,-231 -217,0 -414,88 -557,231 -143,143 -231,339 -231,557 0,217 88,414 231,557 143,143 339,231 557,231 217,0 414,-88 557,-231 143,-143 231,-339 231,-557 0,-217 -88,-414 -231,-557z"
   id="path9" />
  <path
   class="fil2"
   d="M888 757l129 -142 218 252c-103,-33 -236,-75 -348,-110z"
   id="path11" />
  <polygon
   class="fil3"
   points="1278,993 1211,879 1275,901 "
   id="polygon13" />
  <polygon
   class="fil2"
   points="1246,595 1247,595 1278,777 1223,822 1212,809 "
   id="polygon15" />
  <polygon
   class="fil3"
   points="653,682 780,485 892,470 1005,600 868,750 "
   id="polygon17" />
  <path
   class="fil3"
   d="M611 662c24,60 48,118 73,180l-91 -51 18 -129z"
   id="path19" />
  <polygon
   class="fil4"
   points="455,283 455,358 505,428 509,337 "
   id="polygon21" />
  <path
   class="fil3"
   d="M727 282l-89 -118 -12 143c34,-8 68,-17 102,-25z"
   id="path23" />
  <polygon
   class="fil2"
   points="606,481 727,302 625,327 519,524 "
   id="polygon25" />
  <polygon
   class="fil3"
   points="823,1211 802,966 870,1024 875,1183 "
   id="polygon27" />
  <path
   class="fil3"
   d="M1073 1143c-116,55 -232,111 -347,166l-25 -10c103,-56 205,-111 308,-167l65 11z"
   id="path29" />
  <path
   class="fil5"
   d="M1165 865c-145,10 -290,22 -435,33 -28,-65 -54,-131 -81,-197l516 163zm115 -64l-1 86 -43 -50 44 -36zm-357 -326l305 113 -33 202 -273 -315zm-416 77l72 213 22 -160 -8 -95 -85 42zm113 -394l-160 102 71 72c25,-6 50,-13 75,-19l13 -154zm258 1100l-14 391 -20 0 -15 -367 48 -23zm-107 -345l118 -14 193 227 -75 -13c-79,-67 -158,-133 -237,-200z"
   id="path31" />
 </g>
</svg>